# xmcd CD database file
#
# Track frame offsets:
#	150
#	861
#	16178
#	33704
#	47601
#	63820
#	84884
#	98894
#	117924
#	132732
#	151723
#	173552
#	175524
#	190520
#	205754
#
# Disc length: 3742 seconds
#
# Revision: 0
# Processed by: cddbd v1.5.1PL0 Copyright (c) Steve Scherf et al.
# Submitted via: CDex 1.51
#
DISCID=a40e9c0f
DTITLE=Bum Steers - Live At Cafe Voltaire
DYEAR=1999
DGENRE=Country
TTITLE0=Introduction
TTITLE1=Natkingcoleporterwagonersortofthing
TTITLE2=Tell Me Why
TTITLE3=Dancin' On The Levee
TTITLE4=It Wouldn't Matter
TTITLE5=Man Of Few Words
TTITLE6=Siftin' Through The Ashes
TTITLE7=Little Black Cloud
TTITLE8=Softer Place To Fall
TTITLE9=Jesus On A Greyhound
TTITLE10=Mystery Girl
TTITLE11=Spencer Davis Intro
TTITLE12=Gimme Some Lovin'
TTITLE13=Lorraine
TTITLE14=Johnny's Out Of Jail
EXTD=YEAR: 1999
EXTT0=
EXTT1=
EXTT2=
EXTT3=
EXTT4=
EXTT5=
EXTT6=
EXTT7=
EXTT8=
EXTT9=
EXTT10=
EXTT11=
EXTT12=
EXTT13=
EXTT14=
PLAYORDER=
